<svg width="24" height="24" viewBox="0 0 24 24" xmlns="http://www.w3.org/2000/svg">
    <path d="M2 12c0-.552.457-1 1.02-1h14.415l-5.64-5.276a.985.985 0 0 1-.034-1.414c.39-.4 1.034-.414 1.442-.034l7.48 7A.98.98 0 0 1 21 12a.996.996 0 0 1-.316.725l-7.48 7a1.038 1.038 0 0 1-1.443-.035.985.985 0 0 1 .035-1.414L17.436 13H2.981A.981.981 0 0 1 2 12z"/>
    <path d="M2 12c0-.552.457-1 1.02-1h14.415l-5.64-5.276a.985.985 0 0 1-.034-1.414c.39-.4 1.034-.414 1.442-.034l7.48 7A.98.98 0 0 1 21 12a.996.996 0 0 1-.316.725l-7.48 7a1.038 1.038 0 0 1-1.443-.035.985.985 0 0 1 .035-1.414L17.436 13H2.981A.981.981 0 0 1 2 12z"/>
</svg>
