<svg width="24" height="24" viewBox="0 0 24 24" fill="none" xmlns="http://www.w3.org/2000/svg">
<path d="M12 2C6.47656 2 2 6.47656 2 12C2 17.5234 6.47656 22 12 22C17.5234 22 22 17.5234 22 12C22 6.47656 17.5234 2 12 2ZM3.875 12C3.875 10.0973 4.53711 8.34883 5.63711 6.99609L17.0395 18.3984C15.6523 19.4609 13.9023 20.125 12 20.125C7.51953 20.125 3.875 16.4805 3.875 12ZM18.3633 17.0039L6.96094 5.63711C8.34766 4.53711 10.0977 3.875 12 3.875C16.4805 3.875 20.125 7.51992 20.125 12C20.125 13.9023 19.4609 15.6523 18.3633 17.0039Z" fill="black"/>
</svg>
