<svg width="24" height="24" viewBox="0 0 24 24" fill="none" xmlns="http://www.w3.org/2000/svg">
<path d="M9.5 6.08696H3.03125C2.48214 6.08696 2 5.61739 2 5.08261C2 4.46956 2.48214 4 3.03125 4H9.5C10.0893 4 10.5714 4.46957 10.5714 5.04348C10.5714 5.61739 10.0893 6.08696 9.5 6.08696ZM20.9286 20H3.03125C2.48214 20 2 19.5304 2 18.9957C2 18.4609 2.48214 17.913 3.03125 17.913H20.9286C21.5179 17.913 22 18.3826 22 18.9174C22 19.4522 21.5179 20 20.9286 20ZM15.2143 13.0435H3.03125C2.48214 13.0435 2 12.5739 2 12.0391C2 11.4261 2.48214 10.9565 3.03125 10.9565H15.1741C15.8036 10.9565 16.2857 11.4261 16.2857 12C16.2857 12.5739 15.8036 13.0435 15.2143 13.0435Z" fill="black"/>
</svg>
