<svg width="24" height="24" viewBox="0 0 24 24" xmlns="http://www.w3.org/2000/svg">
    <path d="M9.5 6.087H3.031C2.482 6.087 2 5.617 2 5.083 2 4.47 2.482 4 3.031 4H9.5c.59 0 1.071.47 1.071 1.043 0 .574-.482 1.044-1.071 1.044ZM20.929 20H3.03C2.482 20 2 19.53 2 18.996c0-.535.482-1.083 1.031-1.083H20.93c.589 0 1.071.47 1.071 1.004 0 .535-.482 1.083-1.071 1.083Zm-5.715-6.957H3.031c-.549 0-1.031-.47-1.031-1.004 0-.613.482-1.082 1.031-1.082h12.143c.63 0 1.112.47 1.112 1.043 0 .574-.482 1.043-1.072 1.043Z"/>
</svg>
