<svg width="24" height="24" viewBox="0 0 24 24" fill="none" xmlns="http://www.w3.org/2000/svg">
<path d="M9.5 17.913H3.03125C2.48214 17.913 2 18.3826 2 18.9174C2 19.5304 2.48214 20 3.03125 20H9.5C10.0893 20 10.5714 19.5304 10.5714 18.9565C10.5714 18.3826 10.0893 17.913 9.5 17.913ZM20.9286 4H3.03125C2.48214 4 2 4.46957 2 5.00435C2 5.53913 2.48214 6.08696 3.03125 6.08696H20.9286C21.5179 6.08696 22 5.61739 22 5.08261C22 4.54783 21.5179 4 20.9286 4ZM15.2143 10.9565H3.03125C2.48214 10.9565 2 11.4261 2 11.9609C2 12.5739 2.48214 13.0435 3.03125 13.0435H15.1741C15.8036 13.0435 16.2857 12.5739 16.2857 12C16.2857 11.4261 15.8036 10.9565 15.2143 10.9565Z" fill="black"/>
</svg>
