<svg width="24" height="24" viewBox="0 0 24 24" fill="none" xmlns="http://www.w3.org/2000/svg">
<path d="M18.4286 4.5H16.8214V2.9375C16.8214 2.41992 16.3895 2 15.8933 2C15.3971 2 14.8929 2.41992 14.8929 2.9375V4.5H9.10714V2.9375C9.10714 2.41992 8.67723 2 8.14286 2C7.60848 2 7.17857 2.41992 7.17857 2.9375V4.5H5.57143C4.15112 4.5 3 5.61914 3 7V19.5C3 20.8809 4.15112 22 5.57143 22H18.4286C19.8489 22 21 20.8809 21 19.5V7C21 5.61914 19.8469 4.5 18.4286 4.5ZM19.0714 9.5V13.5625H12.9643V9.5H19.0714ZM11.0357 9.5V13.5625H4.92857V9.5H11.0357ZM4.92857 19.5V15.4375H11.0357V20.125H5.57143C5.21705 20.125 4.92857 19.8438 4.92857 19.5ZM18.4286 20.125H12.9643V15.4375H19.0714V19.5C19.0714 19.8438 18.7821 20.125 18.4286 20.125Z" fill="black"/>
</svg>
