<svg width="24" height="24" viewBox="0 0 24 24" xmlns="http://www.w3.org/2000/svg">
    <path d="M7.297 7.737a.747.747 0 0 0-1.06-.034l-4 3.75A.748.748 0 0 0 2 12c0 .206.086.378.237.547l4 3.75a.737.737 0 0 0 .485.203.75.75 0 0 0 .513-1.297L3.847 12l3.415-3.203a.747.747 0 0 0 .035-1.06Zm6.903-3.71a.749.749 0 0 0-.922.524l-4 14.5a.749.749 0 1 0 1.444.398l4-14.5a.747.747 0 0 0-.522-.922Zm7.563 7.426-4-3.75a.75.75 0 1 0-1.026 1.094L20.153 12l-3.415 3.203a.749.749 0 1 0 1.025 1.094l4-3.75c.153-.169.237-.34.237-.547a.743.743 0 0 0-.237-.547Z"/>
</svg>
