<svg width="24" height="24" viewBox="0 0 24 24" xmlns="http://www.w3.org/2000/svg">
    <path d="M9.247 5.257a.804.804 0 0 0-1.177 0l-5.826 6.125a.907.907 0 0 0 0 1.237l5.826 6.125a.925.925 0 0 0 .618.256.812.812 0 0 0 .589-.256.907.907 0 0 0 0-1.238l-5.238-5.505 5.237-5.505a.881.881 0 0 0-.03-1.239Zm12.484 6.124-5.826-6.125a.804.804 0 0 0-1.177 0 .907.907 0 0 0 0 1.238L19.997 12l-5.236 5.504a.907.907 0 0 0 0 1.238.793.793 0 0 0 .586.257.812.812 0 0 0 .588-.256l5.826-6.125a.882.882 0 0 0-.03-1.238Z"/>
</svg>
