<svg width="24" height="24" viewBox="0 0 24 24" fill="none" xmlns="http://www.w3.org/2000/svg">
<path d="M20.6133 6.28571C19.8475 6.28571 19.2266 6.92536 19.2266 7.71429C19.2266 8.03564 19.3486 8.3175 19.5225 8.55607L16.4152 11.1168C16.2088 11.2869 15.9649 11.3675 15.7239 11.3675C15.3214 11.3675 14.9273 11.1425 14.7297 10.7353L12.7328 6.62104C13.125 6.36929 13.3711 5.94071 13.3711 5.42857C13.3711 4.63964 12.7818 4 12.0156 4C11.2494 4 10.5977 4.63964 10.5977 5.42857C10.5977 5.94071 10.8737 6.36929 11.2668 6.62143L9.30109 10.7357C9.10348 11.1107 8.70827 11.3679 8.30612 11.3679C8.06535 11.3679 7.82146 11.2873 7.61484 11.1172L4.50754 8.55646C4.68261 8.31786 4.77344 8.00357 4.77344 7.71429C4.77344 6.92536 4.15254 6.28571 3.38672 6.28571C2.6209 6.28571 2 6.92536 2 7.71429C2 8.50321 2.6209 9.14286 3.38672 9.14286C3.39532 9.14286 3.40257 9.13871 3.41116 9.13857L5.16259 19.06C5.28965 19.6036 5.74762 20 6.28497 20H17.7462C18.2822 20 18.7419 19.605 18.8376 19.0618L20.589 9.13679C20.5959 9.13929 20.6063 9.14286 20.6133 9.14286C21.3794 9.14286 22 8.50357 22 7.71429C22 6.925 21.3794 6.28571 20.6133 6.28571V6.28571ZM17.2817 18.2857H6.74952L5.57462 11.6286L6.57792 12.4554C7.06812 12.8593 7.68279 13.0818 8.30855 13.0818C9.36696 13.0818 10.3183 12.4764 10.7911 11.5021L12.0156 8.975L13.2418 11.5011C13.7147 12.4754 14.666 13.0807 15.7244 13.0807C16.3505 13.0807 16.9652 12.8583 17.455 12.4543L18.4583 11.6275L17.2817 18.2857Z" fill="black"/>
</svg>
