<svg width="24" height="24" viewBox="0 0 24 24" fill="none" xmlns="http://www.w3.org/2000/svg">
<path d="M8.78571 13.2857H4.92857C3.86344 13.2857 3 14.1496 3 15.2143V19.0714C3 20.1362 3.86344 21 4.92857 21H8.78571C9.85045 21 10.7143 20.1362 10.7143 19.0714V15.2143C10.7143 14.1496 9.85045 13.2857 8.78571 13.2857ZM8.78571 19.0714H4.92857V15.2143H8.78571V19.0714ZM8.78571 3H4.92857C3.86344 3 3 3.86344 3 4.92857V8.78571C3 9.85045 3.86344 10.7143 4.92857 10.7143H8.78571C9.85045 10.7143 10.7143 9.85045 10.7143 8.78571V4.92857C10.7143 3.86344 9.85045 3 8.78571 3ZM8.78571 8.78571H4.92857V4.92857H8.78571V8.78571ZM19.0714 13.2857H15.2143C14.1496 13.2857 13.2857 14.1496 13.2857 15.2143V19.0714C13.2857 20.1366 14.1492 21 15.2143 21H19.0714C20.1366 21 21 20.1366 21 19.0714V15.2143C21 14.1496 20.1362 13.2857 19.0714 13.2857ZM19.0714 19.0714H15.2143V15.2143H19.0714V19.0714ZM19.0714 3H15.2143C14.1496 3 13.2857 3.86344 13.2857 4.92857V8.78571C13.2857 9.85045 14.1496 10.7143 15.2143 10.7143H19.0714C20.1362 10.7143 21 9.85045 21 8.78571V4.92857C21 3.86344 20.1362 3 19.0714 3ZM19.0714 8.78571H15.2143V4.92857H19.0714V8.78571Z" fill="black"/>
</svg>
