<svg width="24" height="24" viewBox="0 0 24 24" fill="none" xmlns="http://www.w3.org/2000/svg">
<path d="M20.25 3H3.75C3.3 3 3 3.3 3 3.75V20.25C3 20.7 3.3 21 3.75 21H20.25C20.7 21 21 20.7 21 20.25V3.75C21 3.3 20.7 3 20.25 3ZM8.325 18.375H5.7V9.75H8.4V18.375H8.325ZM6.975 8.55C6.15 8.55 5.4 7.875 5.4 6.975C5.4 6.15 6.075 5.4 6.975 5.4C7.8 5.4 8.55 6.075 8.55 6.975C8.55 7.875 7.875 8.55 6.975 8.55ZM18.375 18.375H15.675V14.175C15.675 13.2 15.675 11.925 14.325 11.925C12.9 11.925 12.75 12.975 12.75 14.1V18.375H10.05V9.75H12.6V10.95C12.975 10.275 13.8 9.6 15.15 9.6C17.85 9.6 18.375 11.4 18.375 13.725V18.375Z" fill="black"/>
</svg>
