<svg width="24" height="24" viewBox="0 0 24 24" fill="none" xmlns="http://www.w3.org/2000/svg">
<path d="M19.4286 2C16.9079 2 14.8571 4.13082 14.8571 6.75V9.125H6.28571C5.02321 9.125 4 10.19 4 11.5V18.625C4 19.9368 5.02321 21 6.28571 21H17.7143C18.9768 21 20 19.9368 20 18.625V11.5C20 10.1882 18.9768 9.125 17.7143 9.125H16.5714V6.75C16.5714 5.11311 17.8532 3.78125 19.4286 3.78125C21.0039 3.78125 22.2857 5.11311 22.2857 6.75V9.42188C22.2857 9.91543 22.6714 10.3125 23.1429 10.3125C23.6143 10.3125 24 9.91357 24 9.42188V6.75C24 4.13082 21.95 2 19.4286 2ZM17.7143 10.9062C18.0294 10.9062 18.2857 11.1726 18.2857 11.5V18.625C18.2857 18.9524 18.0294 19.2188 17.7143 19.2188H6.28571C5.97064 19.2188 5.71429 18.9524 5.71429 18.625V11.5C5.71429 11.1726 5.97064 10.9062 6.28571 10.9062H17.7143ZM12 16.8438C12.4732 16.8438 12.8571 16.4448 12.8571 15.9531V14.1719C12.8571 13.682 12.475 13.2812 12 13.2812C11.525 13.2812 11.1429 13.6802 11.1429 14.1719V15.9531C11.1429 16.4467 11.5286 16.8438 12 16.8438Z" fill="black"/>
</svg>
