<svg width="24" height="24" viewBox="0 0 24 24" fill="none" xmlns="http://www.w3.org/2000/svg">
<path d="M17.7143 9.13755H16.5714V6.72491C16.5714 4.10112 14.5207 2 12 2C9.47929 2 7.42857 4.13457 7.42857 6.72491V9.13755H6.28571C5.02321 9.13755 4 10.2045 4 11.5167V18.6208C4 19.9349 5.02321 21 6.28571 21H17.7143C18.9768 21 20 19.9349 20 18.6208V11.5167C20 10.2045 18.975 9.13755 17.7143 9.13755ZM9.14286 6.75836C9.14286 5.11859 10.4246 3.78439 12 3.78439C13.5754 3.78439 14.8571 5.11859 14.8571 6.75836V9.13755H9.14286V6.75836ZM18.2857 18.6543C18.2857 18.9822 18.0294 19.2491 17.7143 19.2491H6.28571C5.97064 19.2491 5.71429 18.9822 5.71429 18.6543V11.5167C5.71429 11.1888 5.97064 10.9219 6.28571 10.9219H17.7143C18.0294 10.9219 18.2857 11.1888 18.2857 11.5167V18.6543Z" fill="black"/>
</svg>
