<svg width="24" height="24" viewBox="0 0 24 24" fill="none" xmlns="http://www.w3.org/2000/svg">
<path d="M18.7494 3H5.24991C4.0107 3 3 4.01603 3 5.22995V15.3761C3 16.6218 4.0107 17.606 5.24991 17.606H8.62478V20.5739C8.62478 20.9215 9.01219 21.1234 9.29694 20.9167L13.6878 17.606H18.7501C19.9893 17.606 21 16.59 21 15.3761V5.22995C20.9993 4.01603 20.0185 3 18.7494 3ZM19.3435 15.4397C19.3435 15.7489 19.0886 16.0051 18.781 16.0051H13.1562L10.3439 18.1255V16.0051H5.28155C4.97395 16.0051 4.71907 15.7489 4.71907 15.4397V5.26176C4.71907 4.95254 4.97395 4.69632 5.28155 4.69632H18.781C19.0886 4.69632 19.3435 4.95254 19.3435 5.26176V15.4397Z" fill="black"/>
</svg>
