<svg width="24" height="24" viewBox="0 0 24 24" xmlns="http://www.w3.org/2000/svg">
    <g clip-path="url(#a)">
        <path d="M18.75 3H5.25C4.01 3 3 4.016 3 5.23v10.146c0 1.246 1.01 2.23 2.25 2.23h3.375v2.968c0 .348.387.55.672.343l4.39-3.311h5.063c1.24 0 2.25-1.016 2.25-2.23V5.23C21 4.016 20.018 3 18.75 3zm.593 12.44a.567.567 0 0 1-.562.565h-5.625l-2.812 2.12v-2.12H5.282a.568.568 0 0 1-.563-.565V5.262c0-.31.255-.566.563-.566H18.78c.308 0 .563.257.563.566V15.44z"/>
        <g clip-path="url(#b)">
            <path d="M205.1-241h-384c-35.25 0-64 28.75-64 63.1v287.1c0 35.25 28.75 63.1 64 63.1h96v83.98c0 9.836 11.02 15.55 19.12 9.7l124.9-93.68h144c35.25 0 64-28.75 64-63.1v-287.1c-.02-34.35-27.92-63.1-64.02-63.1zM222 111c0 8.75-7.25 16-16 16H46l-80 60v-60h-144c-8.75 0-16-7.25-16-16v-288c0-8.75 7.25-16 16-16h384c8.75 0 16 7.25 16 16v288z"/>
        </g>
    </g>
    <defs>
        <clipPath id="a">
            <path fill="#fff" d="M0 0h24v24H0z"/>
        </clipPath>
        <clipPath id="b">
            <path fill="#fff" transform="translate(-242 -241)" d="M0 0h512v512H0z"/>
        </clipPath>
    </defs>
</svg>
