<svg width="24" height="24" viewBox="0 0 24 24" xmlns="http://www.w3.org/2000/svg">
    <path fill-rule="evenodd" clip-rule="evenodd" d="M8.247 12.008a1.25 1.25 0 1 0 0-2.502 1.25 1.25 0 0 0 0 2.502Zm7.506 0a1.25 1.25 0 1 0 0-2.502 1.25 1.25 0 0 0 0 2.502Zm-7.089 2.335a1 1 0 1 0 0 2h6.672a1 1 0 0 0 0-2H8.664Z"/>
    <path d="M12 3.936a8.16 8.16 0 0 1 4.936 1.654l-1.7 1.577a.5.5 0 0 0 .271.862l5.248.728a.5.5 0 0 0 .567-.538l-.446-5.197a.5.5 0 0 0-.839-.323L18.28 4.335A9.97 9.97 0 0 0 12 2.132c-5.514 0-10 4.452-10 9.924 0 .281.02.557.043.832l1.803-.28-.006-.082c-.01-.155-.022-.31-.022-.47 0-4.477 3.67-8.12 8.182-8.12Zm8.177 8.128a.92.92 0 0 1 .914-.91.9.9 0 0 1 .904.91c-.02 1.234-.107 1.79-.461 2.963a.9.9 0 0 1-1.133.593.919.919 0 0 1-.597-1.145c.288-.96.357-1.405.373-2.41ZM6.06 17.642a.915.915 0 0 1-.044 1.289.897.897 0 0 1-1.273-.045c-.804-.88-1.11-1.32-1.644-2.37a.898.898 0 0 1 .417-1.214.917.917 0 0 1 1.214.418c.437.86.68 1.21 1.33 1.922Zm5.741 2.528a.91.91 0 0 1 .88.928.893.893 0 0 1-.924.875c-1.346-.055-1.951-.168-3.203-.597a.894.894 0 0 1-.544-1.155.913.913 0 0 1 1.157-.543c1.036.356 1.516.446 2.634.491Zm7.324-1.175a.896.896 0 0 0-.009-1.281.916.916 0 0 0-1.28.01c-.803.788-1.212 1.084-2.207 1.598a.914.914 0 0 0-.404 1.222.894.894 0 0 0 1.207.397c1.215-.628 1.726-.999 2.693-1.945Z"/>
</svg>
