<svg width="24" height="24" viewBox="0 0 24 24" xmlns="http://www.w3.org/2000/svg">
    <path fill-rule="evenodd" clip-rule="evenodd" d="M8.247 12.008a1.25 1.25 0 1 0 0-2.502 1.25 1.25 0 0 0 0 2.502zm7.506 0a1.25 1.25 0 1 0 0-2.502 1.25 1.25 0 0 0 0 2.502zm-7.089 2.335a1 1 0 1 0 0 2h6.672a1 1 0 0 0 0-2H8.664z"/>
    <path d="M12 3.936a8.16 8.16 0 0 1 4.936 1.654l-2.473 2.294 6.912.959L20.788 2 18.28 4.335A9.97 9.97 0 0 0 12 2.132c-5.514 0-10 4.452-10 9.924 0 .281.02.557.043.832l1.803-.28-.006-.082c-.01-.155-.022-.31-.022-.47 0-4.477 3.67-8.12 8.182-8.12zm8.182 7.218H22c0 2.277-.05 2.583-.736 4.737l-1.733-.545c.629-1.971.65-2.116.65-4.192zM6.684 18.31l-1.327 1.233c-1.534-1.626-1.687-1.848-2.663-3.845l1.635-.788c.894 1.827.955 1.916 2.355 3.4zm6.02 1.886L12.659 22c-2.377-.058-2.756-.13-4.962-.927l.623-1.696c2.01.727 2.205.766 4.384.82zm7.066-1.846-1.298-1.263c-1.527 1.549-1.711 1.68-3.657 2.644l.814 1.614c2.143-1.062 2.472-1.304 4.142-2.995z"/>
</svg>
