<svg width="24" height="24" viewBox="0 0 24 24" fill="none" xmlns="http://www.w3.org/2000/svg">
<mask id="path-1-inside-1" fill="white">
<path fill-rule="evenodd" clip-rule="evenodd" d="M19.5388 4.85715L4 4.85715C2.89543 4.85715 2 5.75258 2 6.85715L2 17C2 18.1046 2.89543 19 4 19L5.43187 19L6.92806 17.5L4 17.5C3.72386 17.5 3.5 17.2761 3.5 17L3.5 6.85715C3.5 6.581 3.72386 6.35715 4 6.35715L18.0426 6.35715L19.5388 4.85715ZM9.04671 17.5L20 17.5C20.2761 17.5 20.5 17.2761 20.5 17L20.5 6.85715C20.5 6.63001 20.3485 6.43824 20.1411 6.37734L21.2332 5.28247C21.7 5.6486 22 6.21784 22 6.85715L22 17C22 18.1046 21.1046 19 20 19L7.55052 19L9.04671 17.5Z"/>
</mask>
<path fill-rule="evenodd" clip-rule="evenodd" d="M19.5388 4.85715L4 4.85715C2.89543 4.85715 2 5.75258 2 6.85715L2 17C2 18.1046 2.89543 19 4 19L5.43187 19L6.92806 17.5L4 17.5C3.72386 17.5 3.5 17.2761 3.5 17L3.5 6.85715C3.5 6.581 3.72386 6.35715 4 6.35715L18.0426 6.35715L19.5388 4.85715ZM9.04671 17.5L20 17.5C20.2761 17.5 20.5 17.2761 20.5 17L20.5 6.85715C20.5 6.63001 20.3485 6.43824 20.1411 6.37734L21.2332 5.28247C21.7 5.6486 22 6.21784 22 6.85715L22 17C22 18.1046 21.1046 19 20 19L7.55052 19L9.04671 17.5Z" fill="black"/>
<path d="M19.5388 4.85715L20.2468 5.56335C20.5323 5.27716 20.6173 4.84724 20.4624 4.47388C20.3075 4.10051 19.943 3.85715 19.5388 3.85715L19.5388 4.85715ZM4 4.85715L4 5.85715L4 5.85715L4 4.85715ZM2 6.85715L1 6.85715L1 6.85715L2 6.85715ZM2 17L3 17L3 17L2 17ZM4 19L4 20L4 19ZM5.43187 19L5.43187 20C5.69753 20 5.95227 19.8943 6.13988 19.7062L5.43187 19ZM6.92806 17.5L7.63606 18.2062C7.92153 17.92 8.00662 17.4901 7.85169 17.1167C7.69676 16.7434 7.33229 16.5 6.92806 16.5L6.92806 17.5ZM4 17.5L4 18.5L4 18.5L4 17.5ZM3.5 17L4.5 17V17L3.5 17ZM3.5 6.85715L2.5 6.85715L2.5 6.85715L3.5 6.85715ZM4 6.35715L4 7.35715H4L4 6.35715ZM18.0426 6.35715L18.0426 7.35715C18.3082 7.35715 18.563 7.25144 18.7506 7.06335L18.0426 6.35715ZM9.04671 17.5L9.04671 16.5C8.78105 16.5 8.52631 16.6057 8.33871 16.7938L9.04671 17.5ZM20 17.5L20 16.5H20L20 17.5ZM20.5 17L21.5 17L21.5 17L20.5 17ZM20.5 6.85715L19.5 6.85715L19.5 6.85715L20.5 6.85715ZM20.1411 6.37734L19.4331 5.67113C19.184 5.92091 19.0849 6.28349 19.1723 6.62526C19.2598 6.96704 19.5209 7.23744 19.8594 7.33683L20.1411 6.37734ZM21.2332 5.28247L21.8503 4.49559C21.4519 4.18313 20.8828 4.21778 20.5252 4.57627L21.2332 5.28247ZM22 6.85715L21 6.85715L21 6.85715L22 6.85715ZM22 17L23 17L23 17L22 17ZM20 19L20 20L20 20L20 19ZM7.55052 19L6.84252 18.2938C6.55705 18.58 6.47196 19.0099 6.62689 19.3833C6.78182 19.7566 7.14629 20 7.55052 20L7.55052 19ZM19.5388 3.85715L4 3.85715L4 5.85715L19.5388 5.85715L19.5388 3.85715ZM4 3.85715C2.34315 3.85715 1 5.20029 1 6.85715L3 6.85715C3 6.30486 3.44771 5.85715 4 5.85715L4 3.85715ZM1 6.85715L1 17L3 17L3 6.85715L1 6.85715ZM1 17C1 18.6568 2.34315 20 4 20L4 18C3.44772 18 3 17.5523 3 17L1 17ZM4 20L5.43187 20L5.43187 18L4 18L4 20ZM6.13988 19.7062L7.63606 18.2062L6.22005 16.7938L4.72386 18.2938L6.13988 19.7062ZM4 18.5L6.92806 18.5L6.92806 16.5L4 16.5L4 18.5ZM2.5 17C2.5 17.8284 3.17157 18.5 4 18.5L4 16.5C4.27614 16.5 4.5 16.7239 4.5 17L2.5 17ZM2.5 6.85715L2.5 17L4.5 17L4.5 6.85715L2.5 6.85715ZM4 5.35715C3.17157 5.35715 2.5 6.02872 2.5 6.85715L4.5 6.85715C4.5 7.13329 4.27614 7.35715 4 7.35715L4 5.35715ZM18.0426 5.35715L4 5.35715L4 7.35715L18.0426 7.35715L18.0426 5.35715ZM18.7506 7.06335L20.2468 5.56335L18.8308 4.15094L17.3346 5.65094L18.7506 7.06335ZM9.04671 18.5L20 18.5L20 16.5L9.04671 16.5L9.04671 18.5ZM20 18.5C20.8284 18.5 21.5 17.8284 21.5 17L19.5 17C19.5 16.7239 19.7239 16.5 20 16.5L20 18.5ZM21.5 17L21.5 6.85715L19.5 6.85715L19.5 17L21.5 17ZM21.5 6.85715C21.5 6.17425 21.0445 5.60036 20.4228 5.41784L19.8594 7.33683C19.6526 7.27612 19.5 7.08576 19.5 6.85715L21.5 6.85715ZM20.5252 4.57627L19.4331 5.67113L20.8491 7.08354L21.9412 5.98868L20.5252 4.57627ZM23 6.85715C23 5.89767 22.5485 5.04312 21.8503 4.49559L20.6161 6.06936C20.8516 6.25408 21 6.53801 21 6.85715L23 6.85715ZM23 17L23 6.85715L21 6.85715L21 17L23 17ZM20 20C21.6569 20 23 18.6568 23 17L21 17C21 17.5523 20.5523 18 20 18L20 20ZM7.55052 20L20 20L20 18L7.55052 18L7.55052 20ZM8.33871 16.7938L6.84252 18.2938L8.25853 19.7062L9.75472 18.2062L8.33871 16.7938Z" fill="black" mask="url(#path-1-inside-1)"/>
<path fill-rule="evenodd" clip-rule="evenodd" d="M11.2903 13.1266L9.59153 8.39724H7.71695L5 15.9283H6.61949L7.25424 13.9917H9.95932L10.0751 14.3449L11.2903 13.1266ZM10.6144 15.9283H12.2966L11.8512 14.6883L10.6144 15.9283ZM13.1924 13.3437V13.4345C13.1924 15.04 14.1178 16 15.5415 16C16.4551 16 17.1907 15.5862 17.3864 14.9903H17.4636V15.9283H19V8H18.5225L17.4339 9.09136V10.9628H17.3627C17.2046 10.5753 16.8634 10.2836 16.4011 10.1268L13.1924 13.3437ZM17.4339 12.5848C17.4339 11.7076 16.8644 11.1559 16.0814 11.1559C15.2924 11.1559 14.7941 11.7131 14.7941 12.7117V13.28C14.7941 14.2841 15.2983 14.8469 16.1051 14.8469C16.9 14.8469 17.4339 14.2952 17.4339 13.3407V12.5848ZM9.63898 12.8828L8.6483 9.83724H8.57712L7.58644 12.8828H9.63898Z" fill="black"/>
<path d="M2 22L22 2" stroke="black" stroke-width="1.5" stroke-linecap="round" stroke-linejoin="round"/>
</svg>
