<svg width="24" height="24" viewBox="0 0 24 24" xmlns="http://www.w3.org/2000/svg">
    <mask id="a" fill="#fff">
        <path fill-rule="evenodd" clip-rule="evenodd" d="M19.539 4.857H4a2 2 0 0 0-2 2V17a2 2 0 0 0 2 2h1.432l1.496-1.5H4a.5.5 0 0 1-.5-.5V6.857a.5.5 0 0 1 .5-.5h14.043l1.496-1.5zM9.047 17.5H20a.5.5 0 0 0 .5-.5V6.857a.5.5 0 0 0-.359-.48l1.092-1.095c.467.367.767.936.767 1.575V17a2 2 0 0 1-2 2H7.55l1.497-1.5z"/>
    </mask>
    <path fill-rule="evenodd" clip-rule="evenodd" d="M19.539 4.857H4a2 2 0 0 0-2 2V17a2 2 0 0 0 2 2h1.432l1.496-1.5H4a.5.5 0 0 1-.5-.5V6.857a.5.5 0 0 1 .5-.5h14.043l1.496-1.5zM9.047 17.5H20a.5.5 0 0 0 .5-.5V6.857a.5.5 0 0 0-.359-.48l1.092-1.095c.467.367.767.936.767 1.575V17a2 2 0 0 1-2 2H7.55l1.497-1.5z"/>
    <path d="m19.539 4.857.708.706a1 1 0 0 0-.708-1.706v1zM4 4.857v-1 1zm-2 2h1-1zM2 17H1h1zm3.432 2v1a1 1 0 0 0 .708-.294L5.432 19zm1.496-1.5.708.706a1 1 0 0 0-.708-1.706v1zM4 17.5v1-1zm-.5-.5h-1 1zm0-10.143h-1 1zm.5-.5v1-1zm14.043 0v1a1 1 0 0 0 .708-.294l-.708-.706zM9.047 17.5v-1a1 1 0 0 0-.708.294l.708.706zM20 17.5v-1 1zm.5-.5h1-1zm0-10.143h-1 1zm-.359-.48-.708-.706a1 1 0 0 0 .427 1.666l.281-.96zm1.092-1.095.617-.787a1 1 0 0 0-1.325.081l.708.706zM22 6.857h-1 1zM22 17h1-1zm-2 2v-1 1zM7.55 19l-.707-.706A1 1 0 0 0 7.55 20v-1zM19.54 3.857H4v2h15.54v-2zM4 3.857a3 3 0 0 0-3 3h2a1 1 0 0 1 1-1v-2zm-3 3V17h2V6.857H1zM1 17a3 3 0 0 0 3 3v-2a1 1 0 0 1-1-1H1zm3 3h1.432v-2H4v2zm2.14-.294 1.496-1.5-1.416-1.412-1.496 1.5 1.416 1.412zM4 18.5h2.928v-2H4v2zM2.5 17A1.5 1.5 0 0 0 4 18.5v-2a.5.5 0 0 1 .5.5h-2zm0-10.143V17h2V6.857h-2zm1.5-1.5a1.5 1.5 0 0 0-1.5 1.5h2a.5.5 0 0 1-.5.5v-2zm14.043 0H4v2h14.043v-2zm.708 1.706 1.496-1.5-1.416-1.412-1.496 1.5 1.416 1.412zM9.047 18.5H20v-2H9.047v2zM20 18.5a1.5 1.5 0 0 0 1.5-1.5h-2a.5.5 0 0 1 .5-.5v2zm1.5-1.5V6.857h-2V17h2zm0-10.143a1.5 1.5 0 0 0-1.077-1.44l-.563 1.92a.5.5 0 0 1-.36-.48h2zm-.975-2.28L19.433 5.67l1.416 1.412 1.092-1.094-1.416-1.413zM23 6.856c0-.96-.451-1.814-1.15-2.362L20.616 6.07a.996.996 0 0 1 .384.788h2zM23 17V6.857h-2V17h2zm-3 3a3 3 0 0 0 3-3h-2a1 1 0 0 1-1 1v2zM7.55 20H20v-2H7.55v2zm.789-3.206-1.496 1.5 1.416 1.412 1.496-1.5-1.416-1.412z" mask="url(#a)"/>
    <path fill-rule="evenodd" clip-rule="evenodd" d="m11.29 13.127-1.698-4.73H7.717L5 15.928h1.62l.634-1.936H9.96l.116.353 1.215-1.218zm-.676 2.801h1.683l-.446-1.24-1.237 1.24zm2.578-2.584v.09c0 1.606.926 2.566 2.35 2.566.913 0 1.649-.414 1.844-1.01h.078v.938H19V8h-.477l-1.09 1.091v1.872h-.07c-.158-.388-.5-.68-.962-.836l-3.209 3.217zm4.242-.76c0-.876-.57-1.428-1.353-1.428-.789 0-1.287.557-1.287 1.556v.568c0 1.004.504 1.567 1.311 1.567.795 0 1.329-.552 1.329-1.506v-.756zm-7.795.299-.99-3.046h-.072l-.99 3.046h2.052z"/>
    <path fill-rule="evenodd" clip-rule="evenodd" d="M22.53 1.47a.75.75 0 0 1 0 1.06l-20 20a.75.75 0 0 1-1.06-1.06l20-20a.75.75 0 0 1 1.06 0z"/>
</svg>
