<svg width="24" height="24" viewBox="0 0 24 24" fill="none" xmlns="http://www.w3.org/2000/svg">
<path d="M16.7266 19.6948L21.7266 14.6737C21.9084 14.5246 22 14.2853 22 14.0421C22 13.7989 21.9084 13.5604 21.7254 13.3764L16.7254 8.35538C16.3591 7.98763 15.766 7.98763 15.3996 8.35538C15.0332 8.72314 15.0334 9.3188 15.3996 9.68675L18.7992 13.1007H3.875V4.94145C3.875 4.42169 3.45312 4 2.9375 4C2.42188 4 2 4.42169 2 4.94145V14.0421C2 14.5619 2.41992 14.9836 2.9375 14.9836H18.7992L15.3996 18.3975C15.0334 18.7653 15.0334 19.3609 15.3996 19.7289C15.7658 20.0968 16.3594 20.0949 16.7266 19.6948Z" fill="black"/>
</svg>
