<svg width="24" height="24" viewBox="0 0 24 24" fill="none" xmlns="http://www.w3.org/2000/svg">
<path d="M22.1861 4.55656C21.8648 4.94961 21.4817 5.28874 21.0594 5.54209L21.3664 6.46835C21.7168 6.43332 22.054 6.3745 22.3815 6.29654C22.0523 6.62052 21.7001 6.92254 21.3174 7.19038L21.1042 7.33967V7.6V7.60112V7.60225V7.60337V7.60449V7.60562V7.60674V7.60786V7.60898V7.61011V7.61123V7.61235V7.61348V7.6146V7.61572V7.61685V7.61797V7.61909V7.62021V7.62134V7.62246V7.62358V7.62471V7.62583V7.62695V7.62808V7.6292V7.63032V7.63145V7.63257V7.63369V7.63481V7.63594V7.63706V7.63818V7.63931V7.64043V7.64155V7.64268V7.6438V7.64492V7.64605V7.64717V7.64829V7.64941V7.65054V7.65166V7.65278V7.65391V7.65503V7.65615V7.65728V7.6584V7.65952V7.66064V7.66177V7.66289V7.66401V7.66514V7.66626V7.66738V7.66851V7.66963V7.67075V7.67188V7.673V7.67412V7.67524V7.67637V7.67749V7.67861V7.67974V7.68086V7.68198V7.68311V7.68423V7.68535V7.68647V7.6876V7.68872V7.68984V7.69097V7.69209V7.69321V7.69434V7.69546V7.69658V7.69771V7.69883V7.69995V7.70107V7.7022V7.70332V7.70444V7.70557V7.70669V7.70781V7.70894V7.71006V7.71118V7.7123V7.71343V7.71455V7.71567V7.7168V7.71792V7.71904V7.72017V7.72129V7.72241V7.72354V7.72466V7.72578V7.7269V7.72803V7.72915V7.73027V7.7314V7.73252V7.73364V7.73477V7.73589V7.73701V7.73813V7.73926V7.74038V7.7415V7.74263V7.74375V7.74487V7.746V7.74712V7.74824V7.74937V7.75049V7.75161V7.75273V7.75386V7.75498V7.7561V7.75723V7.75835V7.75947V7.7606V7.76172V7.76284V7.76396V7.76509V7.76621V7.76733V7.76846V7.76958V7.7707V7.77183V7.77295V7.77407V7.7752V7.77632V7.77744V7.77856V7.77969V7.78081V7.78193V7.78306V7.78418V7.7853V7.78643V7.78755V7.78867V7.78979V7.79092V7.79204V7.79316V7.79429V7.79541V7.79653V7.79766V7.79878V7.7999V7.80103V7.80215V7.80327V7.80439V7.80552V7.80664V7.80776V7.80889V7.81001V7.81113V7.81226V7.81338V7.8145V7.81562V7.81675V7.81787V7.81899V7.82012V7.82124V7.82236V7.82349V7.82461V7.82573V7.82686V7.82798V7.8291V7.83022V7.83135V7.83247V7.83359V7.83472V7.83584V7.83696V7.83809V7.83921V7.84033V7.84145V7.84258V7.8437V7.84482V7.84595V7.84707V7.84819V7.84932V7.85044V7.85156V7.85269V7.85381V7.85493V7.85605V7.85718V7.8583V7.85942V7.86055V7.86167V7.86279V7.86392V7.86504V7.86616V7.86728V7.86841V7.86953V7.87065V7.87178V7.8729V7.87402V7.87515V7.87627V7.87739V7.87852V7.87964V7.88076V7.88188V7.88301V7.88413V7.88525V7.88638V7.8875V7.88862V7.88975V7.89087V7.89199V7.89312V7.89424V7.89536V7.89648V7.89761V7.89873V7.89985V7.90098V7.9021V7.90322V7.90435V7.90547V7.90659V7.90771V7.90884V7.90996V7.91108V7.91221V7.91333V7.91445V7.91558V7.9167V7.91782V7.91895V7.92007V7.92119V7.92231V7.92344V7.92456V7.92568V7.92681V7.92793V7.92905V7.93018V7.9313V7.93242V7.93354V7.93467V7.93579V7.93691V7.93804V7.93916V7.94028V7.94141V7.94253V7.94365V7.94478V7.9459V7.94702V7.94814V7.94927V7.95039V7.95151V7.95264V7.95376V7.95488V7.95601V7.95713V7.95825V7.95937V7.9605V7.96162V7.96274V7.96387V7.96499V7.96611V7.96724V7.96836V7.96948V7.97061V7.97173V7.97285V7.97397V7.9751V7.97622V7.97734V7.97847V7.97959V7.98071V7.98184V7.98296V7.98408V7.9852V7.98633V7.98745V7.98857V7.9897V7.99082V7.99194V7.99307V7.99419V7.99531V7.99644V7.99756V7.99868V7.9998V8.00093V8.00205V8.00317V8.0043V8.00542V8.00654V8.00767V8.00879V8.00991V8.01103V8.01216V8.01328V8.0144V8.01553V8.01665V8.01777V8.0189V8.02002V8.02114V8.02227V8.02339V8.02451V8.02563V8.02676V8.02788V8.029V8.03013V8.03125V8.03237V8.0335V8.03462V8.03574V8.03686V8.03799V8.03911V8.04023V8.04136V8.04248V8.0436V8.04473V8.04585V8.04697V8.0481V8.04922V8.05034V8.05146V8.05259V8.05371V8.05483V8.05596V8.05708V8.0582V8.05933V8.06045V8.06157V8.0627V8.06382V8.06494V8.06606V8.06719V8.06831V8.06943V8.07056V8.07168V8.0728V8.07393V8.07505V8.07617V8.07729V8.07842V8.07954V8.08066V8.08179V8.08291V8.08403V8.08516V8.08628V8.0874V8.08852V8.08965V8.09077V8.09189V8.09302V8.09414V8.09526V8.09639V8.09751V8.09863V8.09976V8.10088V8.102V8.10312V8.10425V8.10537V8.10649V8.10762V8.10874V8.10986V8.11099V8.11211V8.11323V8.11436V8.11548V8.1166V8.11772V8.11885V8.11997V8.12109V8.12222V8.12334V8.12446V8.12559V8.12671V8.12783V8.12895V8.13008V8.1312V8.13232V8.13345V8.13457V8.13569V8.13682V8.13794V8.13906V8.14018V8.14131V8.14243V8.14355V8.14468V8.1458V8.14692V8.14805V8.14917V8.15029V8.15142V8.15254V8.15366V8.15478V8.15591V8.15703V8.15815V8.15928V8.1604V8.16152V8.16265V8.16377V8.16489V8.16602V8.16714V8.16826V8.16938V8.17051V8.17163V8.17275V8.17388V8.175C21.1042 14.1905 16.5736 21.0917 8.1875 21.0917C6.41347 21.0917 4.68499 20.7169 3.10281 20.0335C5.05193 19.8456 6.82751 19.0895 8.29956 17.9638L9.47279 17.0667H7.99583C6.39732 17.0667 5.05195 16.2076 4.36772 14.9042C4.38735 14.9042 4.40661 14.9042 4.42546 14.9042C4.43372 14.9042 4.4419 14.9042 4.45 14.9042C4.9909 14.9042 5.42449 14.7957 5.80295 14.7011L5.8171 14.6976L5.78528 13.7206C4.14533 13.4224 2.81706 12.0682 2.52035 10.3423C3.01127 10.5112 3.54448 10.5917 4.06667 10.5917H5.6673L4.35127 9.68057C3.22582 8.90141 2.45833 7.6107 2.45833 6.1625C2.45833 5.62404 2.53976 5.13585 2.73073 4.66095C5.10354 7.3178 8.48327 9.06386 12.3804 9.24943L13.1093 9.28414L12.8785 8.59189C12.8139 8.39816 12.8083 8.10752 12.8083 7.69583C12.8083 5.38448 14.6928 3.5 17.0042 3.5C18.2019 3.5 19.3134 4.0132 20.0825 4.86782L20.2691 5.07517L20.5436 5.02527C21.1146 4.92146 21.6579 4.76479 22.1861 4.55656Z" fill="black" stroke="black"/>
</svg>
