<svg width="24" height="24" viewBox="0 0 24 24" xmlns="http://www.w3.org/2000/svg">
    <path d="m3.13 7.68 1.745.727.727 1.745c.036.072.13.13.21.13.081-.001.173-.03.208-.1l.728-1.744 1.745-.728a.257.257 0 0 0 .13-.21.264.264 0 0 0-.128-.21l-1.737-.725-.014-.014-.724-1.733a.252.252 0 0 0-.207-.13.257.257 0 0 0-.21.13L4.874 6.56l-1.746.728c-.07.039-.129.13-.129.18 0 .108.058.203.13.21Zm7.15-2.462.438 1.047c.052.075.108.11.125.11.018 0 .105-.035.126-.078l.437-1.048 1.047-.436a.155.155 0 0 0 .078-.125.154.154 0 0 0-.078-.126l-1.047-.437-.437-1.047c-.02-.043-.045-.078-.126-.078-.08 0-.073.035-.095.078l-.436 1.047-1.047.437a.154.154 0 0 0-.078.125c0 .048.035.105.078.126l1.016.405ZM20.87 16.29l-1.743-.727-.73-1.746a.262.262 0 0 0-.21-.129.256.256 0 0 0-.21.13l-.727 1.745-1.745.728a.257.257 0 0 0-.13.21c0 .08.059.174.13.21l1.743.726.73 1.746c.037.07.129.13.21.13.08 0 .173-.058.209-.13l.728-1.744 1.745-.728a.257.257 0 0 0 .13-.21c-.032-.08-.06-.172-.13-.21Zm-.366-11.602-1.192-1.193a1.68 1.68 0 0 0-2.384 0L3.493 16.925a1.687 1.687 0 0 0 0 2.387l1.193 1.193c.33.33.76.495 1.192.495a1.68 1.68 0 0 0 1.194-.494L20.504 7.075a1.686 1.686 0 0 0 0-2.388ZM5.88 19.313l-1.191-1.191 8.37-8.371 1.194 1.194-8.373 8.368Zm9.563-9.562-1.194-1.194L18.12 4.69l1.194 1.192-3.871 3.869Z"/>
</svg>
