<svg width="24" height="24" viewBox="0 0 24 24" xmlns="http://www.w3.org/2000/svg">
    <path d="M21.966 12.64c-.188.551-1.944 5.36-5.366 5.36-2.976 0-4.222-3.066-5.319-5.772-.927-2.287-1.978-4.878-3.88-4.878-1.754 0-3.298 2.632-3.907 4.402-.121.354-.47.48-.733.48a.744.744 0 0 1-.21-.028.757.757 0 0 1-.466-.34.597.597 0 0 1-.05-.506C2.222 10.808 3.978 6 7.4 6c2.976 0 4.222 3.066 5.319 5.772.927 2.287 1.978 4.878 3.881 4.878 1.753 0 3.297-2.633 3.906-4.402.121-.353.473-.478.737-.478.078 0 .152.01.205.026a.752.752 0 0 1 .467.338.6.6 0 0 1 .05.506Z"/>
</svg>
