<svg width="16" height="16" viewBox="0 0 16 16" fill="none" xmlns="http://www.w3.org/2000/svg">
<path d="M14 12.375V10.625C14 10.1418 13.6162 9.75 13.1429 9.75C12.6696 9.75 12.2857 10.1418 12.2857 10.625V12.375C12.2857 12.8582 11.9019 13.25 11.4286 13.25H4.57143C4.09812 13.25 3.71429 12.8582 3.71429 12.375V10.625C3.71429 10.1418 3.33045 9.75 2.85714 9.75C2.38384 9.75 2 10.1418 2 10.625V12.375C2 13.8248 3.15125 15 4.57143 15H11.4286C12.8482 15 14 13.8242 14 12.375ZM8.60536 10.368L12.0339 6.86797C12.369 6.5259 12.3685 5.97219 12.0339 5.63066C11.6991 5.28887 11.1567 5.28887 10.8219 5.63066L8.85714 7.63906V1.875C8.85714 1.39129 8.47384 1 8 1C7.52616 1 7.14286 1.39129 7.14286 1.875V7.63906L5.17679 5.63203C4.84196 5.29023 4.29955 5.29023 3.96473 5.63203C3.62991 5.97383 3.62991 6.52754 3.96473 6.86934L7.3933 10.3693C7.72946 10.7098 8.27054 10.7098 8.60536 10.368Z" fill="black"/>
</svg>
