<svg width="16" height="16" viewBox="0 0 16 16" fill="none" xmlns="http://www.w3.org/2000/svg">
<path d="M13.2313 8.24015C13.0537 8.42332 12.8188 8.51345 12.5839 8.51345C12.349 8.51345 12.1146 8.42259 11.9359 8.24087L8.91696 5.17859V14.0958C8.91696 14.6101 8.50644 15 8.02602 15C7.54559 15 7.0835 14.6104 7.0835 14.0958V5.17859L4.06489 8.24015C3.70679 8.60358 3.12667 8.60358 2.76857 8.24015C2.41048 7.87671 2.41048 7.28795 2.76857 6.92452L7.35222 2.27257C7.71032 1.90914 8.29043 1.90914 8.64853 2.27257L13.2322 6.92452C13.5894 7.2894 13.5894 7.87671 13.2313 8.24015Z" fill="black"/>
</svg>
