<svg width="16" height="16" viewBox="0 0 16 16" fill="none" xmlns="http://www.w3.org/2000/svg">
<path d="M3.00012 12V5C3.00012 4.44719 3.44794 4 4.00014 4C4.55233 4 5.00015 4.44719 5.00015 5V9.58437L11.294 3.29062C11.4884 3.09687 11.7443 3 12.0003 3C12.2562 3 12.5121 3.09766 12.7071 3.29297C13.0978 3.68359 13.0978 4.31641 12.7071 4.70703L6.41268 11H11.0002C11.5524 11 12.0003 11.4469 12.0003 12C12.0003 12.5531 11.5524 13 11.0002 13H4.00014C3.447 13 3.00012 12.5531 3.00012 12Z" fill="black"/>
</svg>
