<svg width="16" height="16" viewBox="0 0 16 16" fill="none" xmlns="http://www.w3.org/2000/svg">
<path d="M1.29316 8.70705L6.29316 13.707C6.48691 13.9039 6.74316 14.0008 6.99941 14.0008C7.25566 14.0008 7.51129 13.9031 7.70629 13.7078C8.09691 13.3172 8.09691 12.6844 7.70629 12.2938L4.41191 9.0008H13.9994C14.5516 9.0008 14.9994 8.55392 14.9994 8.0008C14.9994 7.44767 14.5516 7.0008 13.9994 7.0008H4.41191L7.70566 3.70705C8.09629 3.31642 8.09629 2.68361 7.70566 2.29298C7.31504 1.90236 6.68223 1.90236 6.2916 2.29298L1.2916 7.29298C0.902539 7.68517 0.902539 8.31642 1.29316 8.70705Z" fill="black"/>
</svg>
