<svg width="16" height="16" viewBox="0 0 16 16" fill="none" xmlns="http://www.w3.org/2000/svg">
<path d="M15.5 2.00298V6.50298C15.5 7.05579 15.0528 7.50298 14.5 7.50298H10C9.44719 7.50298 9 7.05579 9 6.50298C9 5.95016 9.44719 5.50298 10 5.50298H11.9809C11.0444 4.26235 9.56687 3.50985 7.99344 3.50985C5.24062 3.50985 3 5.74985 3 8.50298C3 11.2561 5.24031 13.4967 7.99375 13.4967C9.08375 13.4967 10.1197 13.152 10.99 12.4986C11.4344 12.1695 12.0594 12.2564 12.3903 12.6978C12.7212 13.1403 12.6325 13.7672 12.1911 14.0981C10.9714 15.0131 9.52359 15.5 7.99734 15.5C4.14062 15.4999 1 12.3592 1 8.50298C1 4.64673 4.14062 1.5061 7.99687 1.5061C10.1578 1.5061 12.1844 2.52079 13.5 4.19735V2.00298C13.5 1.45016 13.9472 1.00298 14.5 1.00298C15.0528 1.00298 15.5 1.45016 15.5 2.00298Z" fill="black"/>
</svg>
