<svg width="16" height="16" viewBox="0 0 16 16" fill="none" xmlns="http://www.w3.org/2000/svg">
<path d="M13.2313 8.75985C13.0537 8.57668 12.8188 8.48655 12.5839 8.48655C12.349 8.48655 12.1146 8.57741 11.9359 8.75913L8.91696 11.8214V2.90422C8.91696 2.38989 8.50644 2 8.02602 2C7.54559 2 7.0835 2.3896 7.0835 2.90422V11.8214L4.06489 8.75985C3.70679 8.39642 3.12667 8.39642 2.76857 8.75985C2.41048 9.12329 2.41048 9.71205 2.76857 10.0755L7.35222 14.7274C7.71032 15.0909 8.29043 15.0909 8.64853 14.7274L13.2322 10.0755C13.5894 9.7106 13.5894 9.12329 13.2313 8.75985Z" fill="black"/>
</svg>
