<svg width="16" height="16" viewBox="0 0 16 16" fill="none" xmlns="http://www.w3.org/2000/svg">
<path d="M14.7062 7.29375L9.70619 2.29375C9.51244 2.09688 9.25619 2 8.99994 2C8.74369 2 8.48806 2.09766 8.29306 2.29297C7.90244 2.68359 7.90244 3.31641 8.29306 3.70703L11.5874 7H1.99994C1.44775 7 1 7.44688 1 8C1 8.55312 1.44775 9 1.99994 9H11.5874L8.29369 12.2937C7.90306 12.6844 7.90306 13.3172 8.29369 13.7078C8.68431 14.0984 9.31712 14.0984 9.70775 13.7078L14.7077 8.70781C15.0968 8.31562 15.0968 7.68437 14.7062 7.29375Z" fill="black"/>
</svg>
