<svg width="16" height="16" viewBox="0 0 16 16" fill="none" xmlns="http://www.w3.org/2000/svg">
<path d="M8 1C4.13359 1 1 4.13359 1 8C1 11.8664 4.13359 15 8 15C11.8664 15 15 11.8664 15 8C15 4.13359 11.8664 1 8 1ZM2.75 8C2.75 6.86797 3.11367 5.82125 3.72563 4.96211L11.0373 12.2738C10.1793 12.8863 9.13203 13.25 8 13.25C5.1043 13.25 2.75 10.8957 2.75 8ZM12.2738 11.0379L4.96211 3.72563C5.8207 3.11367 6.86797 2.75 8 2.75C10.8957 2.75 13.25 5.10512 13.25 8C13.25 9.13203 12.8863 10.1793 12.2738 11.0379Z" fill="black"/>
</svg>
