<svg width="16" height="16" viewBox="0 0 16 16" fill="none" xmlns="http://www.w3.org/2000/svg">
<path d="M13.1429 7.16667H2.83304C2.38384 7.16667 2 7.53906 2 8C2 8.46094 2.38384 8.83333 2.83304 8.83333H13.1188C13.617 8.83333 14 8.46094 14 8C14 7.53906 13.617 7.16667 13.1429 7.16667ZM13.1429 11.3333H2.83304C2.38384 11.3333 2 11.7057 2 12.1432C2 12.5807 2.38384 13 2.83304 13H13.1188C13.617 13 14 12.6276 14 12.1667C14 11.7057 13.617 11.3333 13.1429 11.3333ZM13.1429 3H2.83304C2.38384 3 2 3.37318 2 3.8099C2 4.24661 2.38384 4.66667 2.83304 4.66667H13.1188C13.617 4.66667 14 4.29427 14 3.83333C14 3.3724 13.617 3 13.1429 3Z" fill="black"/>
</svg>
