<svg width="16" height="16" viewBox="0 0 16 16" fill="none" xmlns="http://www.w3.org/2000/svg">
<path d="M10 7H1.97188C1.44781 7 1 7.44688 1 7.97188C1 8.49688 1.44781 9 1.97188 9H9.97188C10.5531 9 11 8.55313 11 8C11 7.44687 10.5531 7 10 7ZM6 12H1.97188C1.44781 12 1 12.4469 1 12.9719C1 13.4969 1.44781 14 1.97188 14H6C6.55313 14 7 13.5531 7 13C7 12.4469 6.55313 12 6 12ZM14 2H1.97188C1.44781 2 1 2.44781 1 2.97187C1 3.49594 1.44781 4 1.97188 4H13.9719C14.5531 4 15 3.55313 15 3C15 2.44687 14.5531 2 14 2Z" fill="black"/>
</svg>
