<svg width="16" height="16" viewBox="0 0 16 16" fill="none" xmlns="http://www.w3.org/2000/svg">
<path d="M9.71429 8.83333H2.83304C2.38384 8.83333 2 8.46094 2 8.02344C2 7.58594 2.38384 7.16667 2.83304 7.16667H9.69018C10.1884 7.16667 10.5714 7.53906 10.5714 8C10.5714 8.46094 10.1884 8.83333 9.71429 8.83333ZM6.28571 4.66667H2.83304C2.38384 4.66667 2 4.29427 2 3.85677C2 3.41927 2.38384 3 2.83304 3H6.28571C6.75982 3 7.14286 3.3724 7.14286 3.83333C7.14286 4.29427 6.75982 4.66667 6.28571 4.66667ZM13.1429 13H2.83304C2.38384 13 2 12.6268 2 12.1901C2 11.7534 2.38384 11.3333 2.83304 11.3333H13.1188C13.617 11.3333 14 11.7057 14 12.1667C14 12.6276 13.617 13 13.1429 13Z" fill="black"/>
</svg>
