<svg width="16" height="16" viewBox="0 0 16 16" fill="none" xmlns="http://www.w3.org/2000/svg">
<path d="M10 9H1.97188C1.44781 9 1 8.55312 1 8.02812C1 7.50312 1.44781 7 1.97188 7H9.97188C10.5531 7 11 7.44687 11 8C11 8.55313 10.5531 9 10 9ZM6 4H1.97188C1.44781 4 1 3.55312 1 3.02812C1 2.50312 1.44781 2 1.97188 2H6C6.55313 2 7 2.44687 7 3C7 3.55313 6.55313 4 6 4ZM14 14H1.97188C1.44781 14 1 13.5522 1 13.0281C1 12.5041 1.44781 12 1.97188 12H13.9719C14.5531 12 15 12.4469 15 13C15 13.5531 14.5531 14 14 14Z" fill="black"/>
</svg>
