<svg width="16" height="16" viewBox="0 0 16 16" fill="none" xmlns="http://www.w3.org/2000/svg">
<path d="M7.97589 14C8.94822 14 9.71429 13.2738 9.71429 12.375H6.28572C6.28572 13.2738 7.05179 14 7.97589 14ZM13.7696 10.199C13.254 9.67217 12.283 8.87871 12.283 6.28125C12.283 4.30713 10.8264 2.7291 8.85714 2.34316V1.8125C8.85714 1.36512 8.47197 1 8 1C7.52804 1 7.14286 1.36512 7.14286 1.8125V2.34266C5.17411 2.72986 3.71777 4.3084 3.71777 6.28125C3.71777 8.87871 2.74679 9.6709 2.23116 10.199C2.07031 10.3641 2 10.5596 2 10.75C2.00335 11.1659 2.34821 11.5625 2.86063 11.5625H13.141C13.6531 11.5625 13.9981 11.1659 14.0016 10.75C14 10.5596 13.9304 10.3641 13.7696 10.199Z" fill="black"/>
</svg>
