<svg width="16" height="16" viewBox="0 0 16 16" fill="none" xmlns="http://www.w3.org/2000/svg">
<path d="M8 1C4.13359 1 1 4.13359 1 8C1 11.8664 4.13359 15 8 15C11.8664 15 15 11.8664 15 8C15 4.13359 11.8664 1 8 1ZM7.34375 5.15625C7.34375 4.79531 7.63906 4.5 8 4.5C8.36094 4.5 8.65625 4.79395 8.65625 5.15625V8.65625C8.65625 9.01855 8.3623 9.3125 8 9.3125C7.6377 9.3125 7.34375 9.01992 7.34375 8.65625V5.15625ZM8 11.9375C7.52531 11.9375 7.14031 11.5525 7.14031 11.0778C7.14031 10.6031 7.52504 10.2181 8 10.2181C8.47496 10.2181 8.85969 10.6031 8.85969 11.0778C8.85859 11.552 8.47578 11.9375 8 11.9375Z" fill="black"/>
</svg>
