<svg width="16" height="16" viewBox="0 0 16 16" xmlns="http://www.w3.org/2000/svg">
    <path d="M6.444 4.667c0-.381-.363-.667-.777-.667-.2 0-.399.065-.55.195L1.228 7.53A.617.617 0 0 0 1 8c0 .17.076.341.228.471l3.889 3.334c.151.13.35.195.55.195.414 0 .777-.286.777-.667a.62.62 0 0 0-.227-.47L2.877 8l3.34-2.862c.152-.13.227-.3.227-.471ZM15 8a.62.62 0 0 0-.228-.471l-3.889-3.334a.844.844 0 0 0-.55-.195c-.414 0-.777.286-.777.667 0 .17.076.34.227.47L13.123 8l-3.339 2.863a.614.614 0 0 0-.228.47c0 .381.363.667.777.667a.845.845 0 0 0 .55-.195l3.889-3.334c.153-.13.228-.3.228-.471Z"/>
</svg>
