<svg width="16" height="16" viewBox="0 0 16 16" xmlns="http://www.w3.org/2000/svg">
    <path d="M10.1 3.624A.661.661 0 0 0 9.402 3c-.306 0-.588.177-.676.453l-2.8 8.75a.562.562 0 0 0-.027.172c-.019.201.176.625.701.625.304 0 .585-.179.673-.454l2.8-8.75a.566.566 0 0 0 .027-.172Zm-5.25 2.17c0-.356-.327-.624-.7-.624a.742.742 0 0 0-.495.183l-2.45 2.188A.65.65 0 0 0 1 7.982c0 .143.068.338.205.46l2.45 2.187a.72.72 0 0 0 .495.166c.373 0 .7-.268.7-.625a.59.59 0 0 0-.205-.442L2.69 7.982l1.955-1.745a.54.54 0 0 0 .205-.442ZM15 7.983a.59.59 0 0 0-.205-.442l-2.45-2.187a.84.84 0 0 0-.495-.183c-.373 0-.7.268-.7.625 0 .16.068.32.205.442l1.955 1.746-1.955 1.745a.646.646 0 0 0-.205.442c0 .357.327.625.7.625.18 0 .358-.061.495-.183l2.45-2.188A.537.537 0 0 0 15 7.982Z"/>
</svg>
