<svg width="16" height="16" viewBox="0 0 16 16" fill="none" xmlns="http://www.w3.org/2000/svg">
<path d="M15 5.55357C15 6.09596 14.5654 6.53571 14.0293 6.53571C14.0233 6.53571 14.0183 6.5326 14.0122 6.53252L12.7862 13.356C12.7188 13.7275 12.3985 14 12.0224 14H3.99948C3.6243 14 3.30251 13.7284 3.23553 13.355L2.00978 6.53326C2.00371 6.53326 1.99861 6.53571 1.97071 6.53571C1.43463 6.53571 1 6.09596 1 5.55357C1 5.01118 1.45647 4.57143 1.97071 4.57143C2.48494 4.57143 2.94141 5.01118 2.94141 5.55357C2.94141 5.7745 2.85596 5.96828 2.73424 6.1323L4.90935 7.89279C5.29544 8.20536 5.86792 8.07802 6.089 7.63056L7.48681 4.80199C7.21252 4.62888 7.01837 4.33424 7.01837 3.98214C7.01837 3.43975 7.47461 3 8.01092 3C8.54723 3 8.95978 3.43975 8.95978 3.98214C8.95978 4.33424 8.76654 4.62888 8.49142 4.80223L9.88923 7.6308C10.1103 8.07817 10.683 8.20536 11.0689 7.89304L13.244 6.13254C13.1435 5.96853 13.0586 5.75246 13.0586 5.55357C13.0586 5.01094 13.493 4.57143 14.0293 4.57143C14.5656 4.57143 15 5.01094 15 5.55357Z" fill="black"/>
</svg>
