<svg width="16" height="16" viewBox="0 0 16 16" fill="none" xmlns="http://www.w3.org/2000/svg">
<path d="M14.9149 7.60045C13.5976 4.86384 10.9872 3 8 3C5.01285 3 2.40219 4.86607 1.08432 7.60045C1.03799 7.71875 1 7.88839 1 8C1 8.11109 1.03797 8.28125 1.08432 8.38013C2.40292 11.1362 5.01285 13 8 13C10.9872 13 13.5976 11.1344 14.9149 8.39955C14.9611 8.28125 15 8.09152 15 8C15 7.88839 14.9611 7.71875 14.9149 7.60045ZM11.5 8C11.5 9.77344 9.93302 11.2143 8.00243 11.2143C6.07014 11.2143 4.5 9.77455 4.5 8C4.5 6.22545 6.06771 4.78571 8 4.78571C9.93229 4.78571 11.5 6.22545 11.5 8ZM8 5.85714C7.9441 5.85714 7.86389 5.86607 7.7934 5.875C7.92222 6.08036 8 6.31696 8 6.57143C8 7.36049 7.30365 8 6.44444 8C6.16736 8 5.88785 7.92634 5.68368 7.81027C5.67639 7.87723 5.66667 7.94643 5.66667 8C5.66667 9.16295 6.71181 10.1429 8 10.1429C9.28819 10.1429 10.3333 9.18326 10.3333 8.00022C10.3333 6.81719 9.26632 5.85714 8 5.85714Z" fill="black"/>
</svg>
