<svg width="16" height="16" viewBox="0 0 16 16" fill="none" xmlns="http://www.w3.org/2000/svg">
<path d="M5.85714 2H3.28571C2.57563 2 2 2.57563 2 3.28571V5.85714C2 6.56696 2.57563 7.14286 3.28571 7.14286H5.85714C6.56696 7.14286 7.14286 6.56696 7.14286 5.85714V3.28571C7.14286 2.57563 6.56696 2 5.85714 2ZM12.7143 8.85714H10.1429C9.43304 8.85714 8.85714 9.43304 8.85714 10.1429V12.7143C8.85714 13.4244 9.43277 14 10.1429 14H12.7143C13.4244 14 14 13.4244 14 12.7143V10.1429C14 9.43304 13.4241 8.85714 12.7143 8.85714ZM12.7143 2H10.1429C9.43304 2 8.85714 2.57563 8.85714 3.28571V5.85714C8.85714 6.56696 9.43304 7.14286 10.1429 7.14286H12.7143C13.4241 7.14286 14 6.56696 14 5.85714V3.28571C14 2.57563 13.4241 2 12.7143 2ZM5.85714 8.85714H3.28571C2.57563 8.85714 2 9.43304 2 10.1429V12.7143C2 13.4241 2.57563 14 3.28571 14H5.85714C6.56696 14 7.14286 13.4241 7.14286 12.7143V10.1429C7.14286 9.43304 6.56696 8.85714 5.85714 8.85714Z" fill="black"/>
</svg>
