<svg width="16" height="16" viewBox="0 0 16 16" xmlns="http://www.w3.org/2000/svg">
    <path d="M2.341 12.191c.579.54 1.296.809 2.031.809.736 0 1.47-.27 2.03-.809l.881-.847a3.508 3.508 0 0 1-.85-.586c-.065-.061-.12-.127-.178-.192l-.771.741a1.564 1.564 0 0 1-1.112.443 1.59 1.59 0 0 1-1.111-.443 1.472 1.472 0 0 1 0-2.137l2.708-2.603c.294-.268.69-.442 1.109-.442.418 0 .814.157 1.111.443.299.286.48.664.48 1.069 0 .404-.164.783-.46 1.068l-.091.068a.9.9 0 0 0 .152.217c.175.168.404.26.652.26.243 0 .47-.091.642-.253a2.674 2.674 0 0 0-.454-3.313 2.923 2.923 0 0 0-2.032-.809c-.735 0-1.47.27-2.03.809L2.34 8.287a2.698 2.698 0 0 0-.84 2.018 2.67 2.67 0 0 0 .84 1.886Zm7.406-6.757.77-.74a1.67 1.67 0 0 1 1.11-.444c.42 0 .815.157 1.112.443a1.473 1.473 0 0 1 0 2.137l-2.708 2.603a1.554 1.554 0 0 1-1.109.442c-.436 0-.814-.157-1.111-.443a1.472 1.472 0 0 1 0-2.137l.071-.068a.88.88 0 0 0-.151-.218.941.941 0 0 0-.653-.259.933.933 0 0 0-.642.253 2.674 2.674 0 0 0 .455 3.313 2.955 2.955 0 0 0 4.06 0l2.708-2.603A2.7 2.7 0 0 0 14.5 5.76a2.7 2.7 0 0 0-.841-1.953A2.925 2.925 0 0 0 11.628 3c-.735 0-1.47.27-2.03.809l-.881.847c.307.156.598.343.851.586.065.06.12.127.179.192Z"/>
</svg>
