<svg width="16" height="16" viewBox="0 0 16 16" fill="none" xmlns="http://www.w3.org/2000/svg">
<g clip-path="url(#clip0_833_2954)">
<path d="M13.075 2.01646C11.1363 1.82036 9.5 3.40272 9.5 5.37499V7.24999H4.44444C3.64661 7.24999 3 7.92265 3 8.74999V12.5C3 13.3283 3.64661 14 4.44444 14H11.6667C12.4645 14 13.1111 13.3283 13.1111 12.5V8.74999C13.1111 7.92148 12.4645 7.24999 11.6667 7.24999H10.9444V5.37499C10.9444 4.276 11.859 3.39545 12.9389 3.51006C13.8582 3.60967 14.5556 4.50545 14.5556 5.48514V6.87499C14.5556 7.08124 14.7181 7.24999 14.9167 7.24999H15.6389C15.8375 7.24999 16 7.08124 16 6.87499V5.52499C16 3.76342 14.7632 2.18729 13.075 2.01646Z" fill="black"/>
</g>
<defs>
<clipPath id="clip0_833_2954">
<rect width="16" height="16" fill="white"/>
</clipPath>
</defs>
</svg>
