<svg width="16" height="16" viewBox="0 0 16 16" fill="none" xmlns="http://www.w3.org/2000/svg">
<path d="M11.5714 7.23811L11.2143 7.25924V5.38094C11.2143 3.51649 9.77254 2 8 2C6.22746 2 4.78571 3.51649 4.78571 5.38094V7.25924L4.42857 7.23811C3.63951 7.23811 3 7.91078 3 8.74076V12.4974C3 13.3271 3.63951 14 4.42857 14H11.5714C12.3605 14 13 13.3271 13 12.4974V8.74076C13 7.93309 12.3594 7.23811 11.5714 7.23811V7.23811ZM6.21429 5.38094C6.21429 4.34506 7.01563 3.50264 8 3.50264C8.98438 3.50264 9.78571 4.34506 9.78571 5.38094V7.25924H6.21429V5.38094Z" fill="black"/>
</svg>
