<svg width="16" height="16" viewBox="0 0 16 16" fill="none" xmlns="http://www.w3.org/2000/svg">
<path d="M13.9995 8C13.9995 7.48971 13.5861 7.07663 13.0764 7.07663H8.92259V2.92279C8.92259 2.4125 8.50922 2 7.99951 2C7.4898 2 7.07643 2.4125 7.07643 2.92279V7.07663H2.92259C2.41288 7.07663 1.99951 7.48971 1.99951 8C1.99951 8.51029 2.41288 8.92279 2.92259 8.92279H7.07643V13.0766C7.07643 13.5869 7.4898 14 7.99951 14C8.50922 14 8.92259 13.5869 8.92259 13.0766V8.92279H13.0764C13.587 8.92308 13.9995 8.51058 13.9995 8Z" fill="black"/>
</svg>
