<svg width="16" height="16" viewBox="0 0 16 16" xmlns="http://www.w3.org/2000/svg">
    <path d="m14.84 4.37-3.406-3.245c-.298-.284-.768-.054-.768.388v1.741c-3.223.038-5.777.707-5.777 3.865 0 1.275.794 2.538 1.672 3.197.274.207.664-.052.562-.386-.91-3.009.654-3.67 3.543-3.692V7.98c0 .442.47.672.768.388l3.406-3.245c.213-.183.213-.55 0-.754Zm-3.452 5.646c-.398 0-.722.336-.722.751v.73H3.444V4.005h.723c.398 0 .722-.336.722-.75 0-.416-.323-.752-.722-.752h-.723C2.647 2.503 2 3.175 2 4.005v7.492C2 12.327 2.647 13 3.444 13h7.222c.798 0 1.445-.673 1.445-1.503v-.73a.737.737 0 0 0-.723-.751Z"/>
</svg>
