<svg width="16" height="16" viewBox="0 0 16 16" xmlns="http://www.w3.org/2000/svg">
    <g clip-path="url(#a)">
        <path fill-rule="evenodd" clip-rule="evenodd" d="M8 1.1c1.873 0 3.65.759 4.948 2.052L14 2l1.8 5.4-5.3-1.9 1.035-.935A5.023 5.023 0 0 0 8 3.1c-2.757 0-5 2.243-5 5 0 1.06.327 2.072.947 2.928l-1.62 1.173A6.96 6.96 0 0 1 1 8.1c0-3.86 3.141-7 7-7zm5.498 11.333a6.996 6.996 0 0 0 1.405-3.168l-1.973-.331a4.982 4.982 0 0 1-1.003 2.26l1.571 1.239zm-1.356 1.311a7.015 7.015 0 0 1-2.976 1.259l-.332-1.972a4.992 4.992 0 0 0 2.122-.898l1.186 1.611zm-4.977-.714-.33 1.973a6.997 6.997 0 0 1-3.098-1.351l1.22-1.586a4.99 4.99 0 0 0 2.208.964zm-.04-6.155a.875.875 0 1 1-1.75 0 .875.875 0 0 1 1.75 0zm2.625.875a.875.875 0 1 0 0-1.75.875.875 0 0 0 0 1.75zM5 9h6v2H5V9z"/>
    </g>
    <defs>
        <clipPath id="a">
            <path fill="#fff" d="M0 0h16v16H0z"/>
        </clipPath>
    </defs>
</svg>
