<svg width="16" height="16" viewBox="0 0 16 16" fill="none" xmlns="http://www.w3.org/2000/svg">
<path d="M3.7279 10.7549L7.45165 14.7627C7.60353 14.9209 7.80041 15 8.00009 15C8.19851 15 8.39722 14.9208 8.54769 14.7624L12.2714 10.7546C12.7597 10.248 12.4142 9.375 11.7222 9.375L4.27747 9.375C3.58728 9.375 3.24134 10.248 3.7279 10.7549Z" fill="black"/>
<path d="M12.2721 5.17969L8.54835 1.17188C8.39647 1.01367 8.1996 0.93457 7.99991 0.93457C7.80149 0.93457 7.60278 1.01373 7.45231 1.17214L3.72856 5.17995C3.24034 5.68652 3.58583 6.55957 4.27785 6.55957H11.7225C12.4127 6.55957 12.7587 5.68652 12.2721 5.17969Z" fill="black"/>
</svg>
