<svg width="16" height="16" viewBox="0 0 16 16" fill="none" xmlns="http://www.w3.org/2000/svg">
<g clip-path="url(#clip0)">
<mask id="path-1-inside-1" fill="white">
<path fill-rule="evenodd" clip-rule="evenodd" d="M13.3325 3.02751C13.2243 3.00942 13.1133 3 13 3L3 3C1.89543 3 1 3.89543 1 5L0.999999 11C0.999998 12.1046 1.89543 13 3 13L3.71612 13L6.33345 10.2857L6.25085 9.99173L3.9322 9.99173L3.38814 11.9283L2 11.9283L4.32881 4.39724L5.93559 4.39724L7.40607 9.17339L9.23962 7.27192C9.46325 6.69777 9.84983 6.3 10.3552 6.11501L13.3325 3.02751ZM9.02203 8.93821L7.74227 10.2654L8.25424 11.9283L6.79492 11.9283L6.64687 11.4013L5.10531 13L13 13C14.1046 13 15 12.1046 15 11L15 5C15 4.38791 14.725 3.84004 14.2919 3.47318L13.7839 4L14 4L14 11.9283L12.6831 11.9283L12.6831 10.9903L12.6169 10.9903C12.4492 11.5862 11.8186 12 11.0356 12C9.81525 12 9.02203 11.04 9.02203 9.43448L9.02203 8.93821ZM12.6576 5.16797L12.6576 6.96276L12.5966 6.96276C12.4578 6.56606 12.1545 6.26962 11.7437 6.11577L12.6576 5.16797ZM11.4983 7.15586C12.1695 7.15586 12.6576 7.70759 12.6576 8.58483L12.6576 9.34069C12.6576 10.2952 12.2 10.8469 11.5186 10.8469C10.8271 10.8469 10.3949 10.2841 10.3949 9.28L10.3949 8.71173C10.3949 7.71311 10.822 7.15586 11.4983 7.15586ZM5.12712 5.83724L5.97627 8.88276L4.21695 8.88276L5.0661 5.83724L5.12712 5.83724Z"/>
</mask>
<path fill-rule="evenodd" clip-rule="evenodd" d="M13.3325 3.02751C13.2243 3.00942 13.1133 3 13 3L3 3C1.89543 3 1 3.89543 1 5L0.999999 11C0.999998 12.1046 1.89543 13 3 13L3.71612 13L6.33345 10.2857L6.25085 9.99173L3.9322 9.99173L3.38814 11.9283L2 11.9283L4.32881 4.39724L5.93559 4.39724L7.40607 9.17339L9.23962 7.27192C9.46325 6.69777 9.84983 6.3 10.3552 6.11501L13.3325 3.02751ZM9.02203 8.93821L7.74227 10.2654L8.25424 11.9283L6.79492 11.9283L6.64687 11.4013L5.10531 13L13 13C14.1046 13 15 12.1046 15 11L15 5C15 4.38791 14.725 3.84004 14.2919 3.47318L13.7839 4L14 4L14 11.9283L12.6831 11.9283L12.6831 10.9903L12.6169 10.9903C12.4492 11.5862 11.8186 12 11.0356 12C9.81525 12 9.02203 11.04 9.02203 9.43448L9.02203 8.93821ZM12.6576 5.16797L12.6576 6.96276L12.5966 6.96276C12.4578 6.56606 12.1545 6.26962 11.7437 6.11577L12.6576 5.16797ZM11.4983 7.15586C12.1695 7.15586 12.6576 7.70759 12.6576 8.58483L12.6576 9.34069C12.6576 10.2952 12.2 10.8469 11.5186 10.8469C10.8271 10.8469 10.3949 10.2841 10.3949 9.28L10.3949 8.71173C10.3949 7.71311 10.822 7.15586 11.4983 7.15586ZM5.12712 5.83724L5.97627 8.88276L4.21695 8.88276L5.0661 5.83724L5.12712 5.83724Z" fill="black"/>
<path d="M13.3325 3.02751L14.0523 3.72164C14.31 3.45443 14.3984 3.06647 14.282 2.71398C14.1656 2.36149 13.8636 2.10247 13.4975 2.04122L13.3325 3.02751ZM3 3L3 2L3 2L3 3ZM1 5L2 5L1 5ZM0.999999 11L-1.39876e-06 11L0.999999 11ZM3.71612 13L3.71612 14C3.98764 14 4.24749 13.8896 4.43596 13.6941L3.71612 13ZM6.33345 10.2857L7.05329 10.9799C7.29977 10.7243 7.39222 10.3571 7.29617 10.0153L6.33345 10.2857ZM6.25085 9.99173L7.21357 9.72125C7.09237 9.28984 6.69896 8.99173 6.25085 8.99173L6.25085 9.99173ZM3.9322 9.99173L3.9322 8.99173C3.48409 8.99173 3.09068 9.28984 2.96948 9.72125L3.9322 9.99173ZM3.38814 11.9283L3.38814 12.9283C3.83625 12.9283 4.22966 12.6302 4.35086 12.1988L3.38814 11.9283ZM2 11.9283L1.04463 11.6329C0.950809 11.9363 1.00669 12.2662 1.19519 12.5218C1.3837 12.7774 1.68241 12.9283 2 12.9283L2 11.9283ZM4.32881 4.39724L4.32881 3.39724C3.89033 3.39724 3.50299 3.6829 3.37345 4.10182L4.32881 4.39724ZM5.93559 4.39724L6.89132 4.103C6.76216 3.68349 6.37453 3.39724 5.93559 3.39724L5.93559 4.39724ZM7.40607 9.17339L6.45034 9.46764C6.55448 9.8059 6.82967 10.0639 7.17393 10.1461C7.51819 10.2282 7.88024 10.1223 8.12591 9.86753L7.40607 9.17339ZM9.23962 7.27192L9.95947 7.96606C10.0513 7.87078 10.1234 7.7582 10.1714 7.63486L9.23962 7.27192ZM10.3552 6.11501L10.6989 7.05408C10.8413 7.00199 10.9699 6.91824 11.0751 6.80915L10.3552 6.11501ZM9.02203 8.93821L10.022 8.93821C10.022 8.53044 9.77444 8.16351 9.3963 8.01089C9.01817 7.85827 8.58524 7.95054 8.30219 8.24408L9.02203 8.93821ZM7.74227 10.2654L7.02242 9.57124C6.76979 9.83323 6.67944 10.2118 6.78654 10.5596L7.74227 10.2654ZM8.25424 11.9283L8.25424 12.9283C8.57161 12.9283 8.87015 12.7776 9.05868 12.5223C9.24721 12.267 9.30335 11.9374 9.20997 11.634L8.25424 11.9283ZM6.79492 11.9283L5.83219 12.1988C5.95339 12.6302 6.3468 12.9283 6.79491 12.9283L6.79492 11.9283ZM6.64687 11.4013L7.6096 11.1309C7.51268 10.7859 7.23855 10.5191 6.89105 10.4316C6.54354 10.3441 6.17578 10.4492 5.92703 10.7072L6.64687 11.4013ZM5.10531 13L4.38546 12.3059C4.10701 12.5946 4.02807 13.0219 4.18494 13.3911C4.34182 13.7603 4.70415 14 5.10531 14L5.10531 13ZM13 13L13 12L13 12L13 13ZM15 11L16 11L16 11L15 11ZM15 5L14 5L14 5L15 5ZM14.2919 3.47318L14.9382 2.7101C14.5359 2.36932 13.938 2.39949 13.572 2.77904L14.2919 3.47318ZM13.7839 4L13.064 3.30587C12.7856 3.59464 12.7066 4.02186 12.8635 4.39107C13.0204 4.76028 13.3827 5 13.7839 5L13.7839 4ZM14 4L15 4C15 3.44772 14.5523 3 14 3L14 4ZM14 11.9283L14 12.9283C14.2652 12.9283 14.5196 12.8229 14.7071 12.6354C14.8946 12.4478 15 12.1935 15 11.9283L14 11.9283ZM12.6831 11.9283L11.6831 11.9283C11.6831 12.4806 12.1308 12.9283 12.6831 12.9283L12.6831 11.9283ZM12.6831 10.9903L13.6831 10.9903C13.6831 10.4381 13.2353 9.99035 12.6831 9.99035L12.6831 10.9903ZM12.6169 10.9903L12.6169 9.99035C12.1691 9.99035 11.7758 10.2882 11.6544 10.7193L12.6169 10.9903ZM12.6576 6.96276L12.6576 7.96276C13.2099 7.96276 13.6576 7.51505 13.6576 6.96276L12.6576 6.96276ZM12.6576 5.16797L13.6576 5.16797C13.6576 4.76019 13.41 4.39326 13.0319 4.24065C12.6538 4.08803 12.2208 4.1803 11.9378 4.47383L12.6576 5.16797ZM12.5966 6.96276L11.6527 7.293C11.7931 7.69414 12.1716 7.96276 12.5966 7.96276L12.5966 6.96276ZM11.7437 6.11577L11.0238 5.42164C10.79 5.66412 10.694 6.00803 10.7683 6.33657C10.8427 6.66512 11.0775 6.93413 11.393 7.05227L11.7437 6.11577ZM12.6576 8.58483L13.6576 8.58483L13.6576 8.58483L12.6576 8.58483ZM11.4983 7.15586L11.4983 8.15586L11.4983 8.15586L11.4983 7.15586ZM12.6576 9.34069L11.6576 9.34069L12.6576 9.34069ZM10.3949 9.28L9.39491 9.28L9.39491 9.28L10.3949 9.28ZM5.97627 8.88276L5.97627 9.88276C6.28894 9.88276 6.58361 9.73652 6.77269 9.4875C6.96178 9.23849 7.0235 8.91536 6.93953 8.61418L5.97627 8.88276ZM5.12712 5.83724L6.09038 5.56867C5.96983 5.13631 5.57597 4.83724 5.12712 4.83724L5.12712 5.83724ZM4.21695 8.88276L3.25369 8.61418C3.16972 8.91536 3.23144 9.23849 3.42053 9.4875C3.60961 9.73652 3.90428 9.88276 4.21695 9.88276L4.21695 8.88276ZM5.0661 5.83724L5.0661 4.83724C4.61725 4.83724 4.22339 5.13631 4.10284 5.56867L5.0661 5.83724ZM13.4975 2.04122C13.335 2.01404 13.1688 2 13 2L13 4C13.0578 4 13.1136 4.00479 13.1674 4.0138L13.4975 2.04122ZM13 2L3 2L3 4L13 4L13 2ZM3 2C1.34315 2 -5.99977e-08 3.34315 -3.49691e-07 5L2 5C2 4.44772 2.44772 4 3 4L3 2ZM-3.49691e-07 5L-1.39876e-06 11L2 11L2 5L-3.49691e-07 5ZM-1.39876e-06 11C-1.68846e-06 12.6569 1.34315 14 3 14L3 12C2.44771 12 2 11.5523 2 11L-1.39876e-06 11ZM3 14L3.71612 14L3.71612 12L3 12L3 14ZM4.43596 13.6941L7.05329 10.9799L5.6136 9.5916L2.99627 12.3059L4.43596 13.6941ZM7.29617 10.0153L7.21357 9.72125L5.28812 10.2622L5.37072 10.5562L7.29617 10.0153ZM6.25085 8.99173L3.9322 8.99173L3.9322 10.9917L6.25085 10.9917L6.25085 8.99173ZM2.96948 9.72125L2.42541 11.6578L4.35086 12.1988L4.89493 10.2622L2.96948 9.72125ZM3.38814 10.9283L2 10.9283L2 12.9283L3.38814 12.9283L3.38814 10.9283ZM2.95537 12.2237L5.28418 4.69267L3.37345 4.10182L1.04463 11.6329L2.95537 12.2237ZM4.32881 5.39724L5.93559 5.39724L5.93559 3.39724L4.32881 3.39724L4.32881 5.39724ZM4.97986 4.69149L6.45034 9.46764L8.36179 8.87914L6.89132 4.103L4.97986 4.69149ZM8.12591 9.86753L9.95947 7.96606L8.51978 6.57779L6.68622 8.47925L8.12591 9.86753ZM10.1714 7.63486C10.3059 7.28973 10.4998 7.12698 10.6989 7.05408L10.0115 5.17594C9.1999 5.47301 8.62064 6.10581 8.30781 6.90899L10.1714 7.63486ZM11.0751 6.80915L14.0523 3.72164L12.6126 2.33337L9.63537 5.42088L11.0751 6.80915ZM8.30219 8.24408L7.02242 9.57124L8.46211 10.9595L9.74188 9.63235L8.30219 8.24408ZM6.78654 10.5596L7.29851 12.2225L9.20997 11.634L8.69799 9.97113L6.78654 10.5596ZM8.25424 10.9283L6.79492 10.9283L6.79491 12.9283L8.25424 12.9283L8.25424 10.9283ZM7.75764 11.6578L7.6096 11.1309L5.68415 11.6718L5.83219 12.1988L7.75764 11.6578ZM5.92703 10.7072L4.38546 12.3059L5.82515 13.6941L7.36672 12.0955L5.92703 10.7072ZM5.10531 14L13 14L13 12L5.10531 12L5.10531 14ZM13 14C14.6569 14 16 12.6569 16 11L14 11C14 11.5523 13.5523 12 13 12L13 14ZM16 11L16 5L14 5L14 11L16 11ZM16 5C16 4.08159 15.5861 3.25885 14.9382 2.7101L13.6456 4.23625C13.864 4.42124 14 4.69423 14 5L16 5ZM13.572 2.77904L13.064 3.30587L14.5037 4.69414L15.0117 4.16731L13.572 2.77904ZM13.7839 5L14 5L14 3L13.7839 3L13.7839 5ZM13 4L13 11.9283L15 11.9283L15 4L13 4ZM14 10.9283L12.6831 10.9283L12.6831 12.9283L14 12.9283L14 10.9283ZM13.6831 11.9283L13.6831 10.9903L11.6831 10.9903L11.6831 11.9283L13.6831 11.9283ZM12.6831 9.99035L12.6169 9.99035L12.6169 11.9903L12.6831 11.9903L12.6831 9.99035ZM11.6544 10.7193C11.6408 10.7675 11.5047 11 11.0356 11L11.0356 13C12.1326 13 13.2575 12.405 13.5795 11.2614L11.6544 10.7193ZM11.0356 11C10.7127 11 10.5041 10.8856 10.3535 10.6965C10.1833 10.4827 10.022 10.0842 10.022 9.43449L8.02203 9.43448C8.02203 10.3903 8.25737 11.2746 8.78884 11.9422C9.33997 12.6344 10.1382 13 11.0356 13L11.0356 11ZM10.022 9.43449L10.022 8.93821L8.02203 8.93821L8.02203 9.43448L10.022 9.43449ZM13.6576 6.96276L13.6576 5.16797L11.6576 5.16797L11.6576 6.96276L13.6576 6.96276ZM12.5966 7.96276L12.6576 7.96276L12.6576 5.96276L12.5966 5.96276L12.5966 7.96276ZM11.393 7.05227C11.549 7.11069 11.6198 7.19885 11.6527 7.293L13.5405 6.63252C13.2959 5.93326 12.76 5.42854 12.0944 5.17928L11.393 7.05227ZM11.9378 4.47383L11.0238 5.42164L12.4635 6.80991L13.3775 5.8621L11.9378 4.47383ZM13.6576 8.58483C13.6576 7.96624 13.4848 7.36643 13.0985 6.90191C12.701 6.42399 12.1285 6.15586 11.4983 6.15586L11.4983 8.15586C11.527 8.15586 11.5382 8.16124 11.5396 8.16189C11.541 8.16255 11.5483 8.16579 11.5608 8.18085C11.5863 8.2115 11.6576 8.32618 11.6576 8.58483L13.6576 8.58483ZM13.6576 9.34069L13.6576 8.58483L11.6576 8.58483L11.6576 9.34069L13.6576 9.34069ZM11.5186 11.8469C12.1569 11.8469 12.7378 11.575 13.1337 11.0647C13.509 10.581 13.6576 9.96508 13.6576 9.34069L11.6576 9.34069C11.6576 9.67079 11.5774 9.80801 11.5535 9.83874C11.5439 9.85119 11.5429 9.8483 11.551 9.84439C11.5585 9.84079 11.5519 9.8469 11.5186 9.8469L11.5186 11.8469ZM9.39491 9.28C9.39491 9.90759 9.52751 10.5338 9.89 11.0299C10.2805 11.5644 10.867 11.8469 11.5186 11.8469L11.5186 9.8469C11.4837 9.8469 11.4818 9.84053 11.4963 9.84773C11.5117 9.85538 11.5141 9.86263 11.5049 9.85007C11.4784 9.81382 11.3949 9.65655 11.3949 9.28L9.39491 9.28ZM9.39491 8.71173L9.39491 9.28L11.3949 9.28L11.3949 8.71173L9.39491 8.71173ZM11.4983 6.15586C10.8497 6.15586 10.2684 6.44083 9.88313 6.97272C9.52581 7.46605 9.39491 8.08788 9.39491 8.71173L11.3949 8.71173C11.3949 8.33695 11.4776 8.18086 11.5029 8.14591C11.5114 8.13411 11.5076 8.14303 11.4893 8.15224C11.4716 8.1611 11.4691 8.15586 11.4983 8.15586L11.4983 6.15586ZM6.93953 8.61418L6.09038 5.56867L4.16386 6.10582L5.01301 9.15134L6.93953 8.61418ZM4.21695 9.88276L5.97627 9.88276L5.97627 7.88276L4.21695 7.88276L4.21695 9.88276ZM4.10284 5.56867L3.25369 8.61418L5.18021 9.15134L6.02936 6.10582L4.10284 5.56867ZM5.12712 4.83724L5.0661 4.83724L5.0661 6.83724L5.12712 6.83724L5.12712 4.83724Z" fill="black" mask="url(#path-1-inside-1)"/>
<path d="M1 15L14.5 1" stroke="black" stroke-width="1.5" stroke-linecap="round" stroke-linejoin="round"/>
</g>
<defs>
<clipPath id="clip0">
<rect width="16" height="16" fill="white"/>
</clipPath>
</defs>
</svg>
