<svg width="16" height="16" viewBox="0 0 16 16" xmlns="http://www.w3.org/2000/svg">
    <path d="M4.5 13.119v-6c0-.474-.392-.833-.875-.833h-1.75c-.483 0-.875.384-.875.833v5.976c0 .473.392.833.875.833h1.75c.484.048.875-.314.875-.81zM15 7.146c0-.71-.587-1.286-1.313-1.286H9.683c.622-1.015.944-2.166.944-2.572C10.625 2.657 10.119 2 9.27 2c-1.726 0-.72 2.04-2.958 3.793l-.446.348a1.28 1.28 0 0 0-.49 1.002l-.002 4.286c0 .404.194.785.525 1.028l.934.685A4.423 4.423 0 0 0 9.457 14h1.605c.726 0 1.313-.575 1.313-1.285a1.26 1.26 0 0 0-.034-.283c.526-.168.909-.645.909-1.218 0-.245-.074-.471-.195-.666a1.291 1.291 0 0 0 1.07-1.26c0-.334-.134-.637-.348-.865C14.46 8.378 15 7.826 15 7.146z"/>
</svg>
