<svg width="16" height="16" viewBox="0 0 16 16" xmlns="http://www.w3.org/2000/svg">
    <path d="M3.687 6.788a.166.166 0 0 0 .137.087c.051-.021.112-.04.134-.087l.473-1.163 1.13-.485A.172.172 0 0 0 5.647 5a.176.176 0 0 0-.083-.14l-1.126-.483-.009-.01-.47-1.155a.165.165 0 0 0-.134-.087.166.166 0 0 0-.137.087l-.472 1.162-1.131.485c-.046.026-.084.087-.084.12 0 .053.038.116.084.14l1.132.485.471 1.184ZM6.742 3.48l.283.698c.013.05.05.073.082.073a.098.098 0 0 0 .081-.052l.283-.719.68-.291a.103.103 0 0 0 .05-.084.103.103 0 0 0-.05-.084l-.68-.27-.282-.698C7.175 2.023 7.118 2 7.107 2c-.012 0-.069.023-.083.052l-.282.698-.68.291c-.027.014-.05.052-.05.063 0 .032.023.07.05.084l.68.291Zm6.937-.354-.774-.795a1.073 1.073 0 0 0-1.547 0l-8.709 8.954a1.147 1.147 0 0 0 0 1.59l.773.796c.428.44 1.12.44 1.548 0l8.709-8.954a1.146 1.146 0 0 0 0-1.59ZM10.245 6.39l-.515-.53 2.402-2.47.517.53-2.403 2.47Zm3.342 4.47-1.13-.485-.473-1.164a.17.17 0 0 0-.136-.086.165.165 0 0 0-.136.087l-.472 1.163-1.131.485a.172.172 0 0 0-.084.14c0 .053.037.116.084.14l1.13.484.473 1.165a.166.166 0 0 0 .136.086.166.166 0 0 0 .136-.086l.472-1.164 1.132-.485a.172.172 0 0 0 .084-.14.177.177 0 0 0-.085-.14Z"/>
</svg>
