<svg width="16" height="16" viewBox="0 0 16 16" fill="none" xmlns="http://www.w3.org/2000/svg">
<path d="M13.6466 4.04734C14.1153 3.57863 14.1153 2.81931 13.6466 2.3506C13.4141 2.11624 13.1066 2 12.7992 2C12.4917 2 12.185 2.11718 11.951 2.35154L7.99953 6.30091L4.04847 2.35247C3.81411 2.11624 3.50701 2 3.19991 2C2.89281 2 2.58608 2.11624 2.35154 2.35247C1.88282 2.82119 1.88282 3.5805 2.35154 4.04921L6.30373 8.00141L2.35154 11.9517C1.88282 12.4204 1.88282 13.1798 2.35154 13.6485C2.82025 14.1172 3.57956 14.1172 4.04828 13.6485L7.99953 9.6944L11.9517 13.6466C12.4204 14.1153 13.1798 14.1153 13.6485 13.6466C14.1172 13.1779 14.1172 12.4186 13.6485 11.9498L9.69627 7.99766L13.6466 4.04734Z" fill="black"/>
</svg>
